<svg width="20" height="13" viewBox="0 0 20 13" fill="none" xmlns="http://www.w3.org/2000/svg">
<path d="M0.703421 0C6.84747 0 12.9465 0 19.0906 0C18.9707 0.116861 18.8808 0.204792 18.7909 0.292437C16.9627 1.9431 15.1194 3.59324 13.2912 5.2439C12.1823 6.25183 11.0734 7.24486 9.94946 8.23818C9.67972 8.4865 9.42497 8.48685 9.15523 8.22391C7.92642 7.02609 6.6976 5.84259 5.46879 4.64476C4.44978 3.65144 3.43078 2.65807 2.41177 1.66475C1.90226 1.16809 1.39275 0.686386 0.883239 0.189728C0.838283 0.145905 0.778348 0.0876456 0.703421 0Z" fill="white"/>
<path d="M13.0816 6.74864C15.1046 8.79371 17.0977 10.8244 19.1357 12.8841C12.9617 12.8841 6.84759 12.8841 0.673573 12.8841C0.838414 12.7088 0.958296 12.5623 1.09317 12.4162C2.6067 10.824 4.13521 9.21676 5.64874 7.62453C5.84355 7.42002 6.03837 7.23024 6.2182 7.01112C6.3231 6.89426 6.39802 6.89426 6.5179 7.01112C7.16228 7.65386 7.83662 8.28278 8.481 8.92552C9.0954 9.52443 9.94959 9.53835 10.579 8.95405C11.3582 8.25288 12.1225 7.56678 12.9017 6.86562C12.9617 6.8364 13.0066 6.80707 13.0816 6.74864Z" fill="white"/>
<path d="M19.8419 0.672331C19.8419 4.52874 19.8419 8.32689 19.8419 12.1687C19.767 12.1103 19.7071 12.0667 19.6771 12.0374C18.9278 11.2778 18.1786 10.5175 17.4443 9.75786C16.2754 8.57464 15.1065 7.39154 13.9377 6.22293C13.8178 6.10607 13.8627 6.0481 13.9527 5.96045C14.7469 5.24468 15.5411 4.52931 16.3503 3.81354C17.4593 2.82022 18.5682 1.82684 19.6771 0.833528C19.7071 0.775097 19.752 0.745369 19.8419 0.672331Z" fill="white"/>
<path d="M0 12.1381C0 8.3255 0 4.55702 0 0.744436C0.0749274 0.802866 0.149854 0.847202 0.209796 0.905633C1.97808 2.62933 3.76136 4.33882 5.52965 6.06252C5.64953 6.17938 5.64953 6.25236 5.52965 6.36922C4.2409 7.71312 2.96711 9.05667 1.69334 10.4006C1.16885 10.9557 0.644364 11.5102 0.104886 12.0653C0.089901 12.0799 0.0449564 12.1089 0 12.1381Z" fill="white"/>
</svg>
