<svg width="19" height="17" viewBox="0 0 19 17" fill="none" xmlns="http://www.w3.org/2000/svg">
<path d="M3.34023 0.0447946C4.11965 -0.147734 4.49313 0.301249 4.76917 0.991143C5.17511 2.03401 5.62978 3.07756 6.0682 4.10438C6.23058 4.45735 6.21434 4.77879 5.97078 5.08363C5.61354 5.5489 5.27254 6.02885 4.89907 6.47808C4.63927 6.78292 4.62303 7.05617 4.81788 7.39309C6.29552 9.83179 8.3415 11.6131 11.0207 12.656C11.3942 12.8004 11.6865 12.7352 11.93 12.4304C12.3685 11.8849 12.8231 11.3401 13.2615 10.7946C13.5863 10.3935 13.7649 10.2978 14.2358 10.5063C15.5024 11.0839 16.7689 11.6777 18.0192 12.3034C18.1816 12.3837 18.3115 12.6562 18.3115 12.8487C18.279 14.7419 17.7107 15.6553 15.6648 16.5056C14.4956 16.9869 13.294 16.8754 12.0924 16.5385C7.7407 15.3352 4.54184 12.6392 1.97626 9.0774C1.18061 7.97036 0.466155 6.83243 0.157637 5.48473C-0.280784 3.55944 0.190119 1.87463 1.63528 0.478799C2.12242 0.0616534 2.69072 -0.0514697 3.34023 0.0447946Z" fill="#9FCE00"/>
</svg>
